<svg width="33" height="33" viewBox="0 0 33 33" fill="none" xmlns="http://www.w3.org/2000/svg">
<g clip-path="url(#clip0_151_8)">
<path d="M17.2174 21.9522C18.5326 21.9522 19.6505 21.4919 20.5712 20.5712C21.4918 19.6506 21.9522 18.5326 21.9522 17.2174C21.9522 15.9022 21.4918 14.7843 20.5712 13.8636C19.6505 12.943 18.5326 12.4826 17.2174 12.4826C15.9022 12.4826 14.7842 12.943 13.8636 13.8636C12.9429 14.7843 12.4826 15.9022 12.4826 17.2174C12.4826 18.5326 12.9429 19.6506 13.8636 20.5712C14.7842 21.4919 15.9022 21.9522 17.2174 21.9522ZM17.2174 24.3913C15.2326 24.3913 13.5407 23.6919 12.1418 22.293C10.7429 20.894 10.0435 19.2022 10.0435 17.2174C10.0435 15.2326 10.7429 13.5408 12.1418 12.1419C13.5407 10.743 15.2326 10.0435 17.2174 10.0435C19.2022 10.0435 20.894 10.743 22.2929 12.1419C23.6918 13.5408 24.3913 15.2326 24.3913 17.2174C24.3913 19.2022 23.6918 20.894 22.2929 22.293C20.894 23.6919 19.2022 24.3913 17.2174 24.3913ZM2.51086 18.437C2.17607 18.437 1.88912 18.3174 1.64999 18.0783C1.41086 17.8391 1.29129 17.5522 1.29129 17.2174C1.29129 16.8587 1.41086 16.5658 1.64999 16.3386C1.88912 16.1114 2.17607 15.9978 2.51086 15.9978H6.09781C6.43259 15.9978 6.71955 16.1174 6.95868 16.3565C7.19781 16.5957 7.31738 16.8826 7.31738 17.2174C7.31738 17.5761 7.19781 17.869 6.95868 18.0962C6.71955 18.3234 6.43259 18.437 6.09781 18.437H2.51086ZM28.3369 18.437C28.0022 18.437 27.7152 18.3174 27.4761 18.0783C27.2369 17.8391 27.1174 17.5522 27.1174 17.2174C27.1174 16.8587 27.2369 16.5658 27.4761 16.3386C27.7152 16.1114 28.0022 15.9978 28.3369 15.9978H31.9239C32.2587 15.9978 32.5456 16.1174 32.7848 16.3565C33.0239 16.5957 33.1435 16.8826 33.1435 17.2174C33.1435 17.5761 33.0239 17.869 32.7848 18.0962C32.5456 18.3234 32.2587 18.437 31.9239 18.437H28.3369ZM17.2174 7.31741C16.8587 7.31741 16.5657 7.19784 16.3386 6.95871C16.1114 6.71958 15.9978 6.43263 15.9978 6.09784V2.51089C15.9978 2.1761 16.1174 1.88915 16.3565 1.65002C16.5956 1.41089 16.8826 1.29132 17.2174 1.29132C17.5761 1.29132 17.869 1.41089 18.0962 1.65002C18.3234 1.88915 18.4369 2.1761 18.4369 2.51089V6.09784C18.4369 6.43263 18.3174 6.71958 18.0782 6.95871C17.8391 7.19784 17.5522 7.31741 17.2174 7.31741ZM17.2174 33.1435C16.8587 33.1435 16.5657 33.0239 16.3386 32.7848C16.1114 32.5457 15.9978 32.2587 15.9978 31.9239V28.337C15.9978 28.0022 16.1174 27.7152 16.3565 27.4761C16.5956 27.237 16.8826 27.1174 17.2174 27.1174C17.5761 27.1174 17.869 27.237 18.0962 27.4761C18.3234 27.7152 18.4369 28.0022 18.4369 28.337V31.9239C18.4369 32.2587 18.3174 32.5457 18.0782 32.7848C17.8391 33.0239 17.5522 33.1435 17.2174 33.1435ZM8.50107 10.2228L6.45651 8.21415C6.21738 7.97502 6.10379 7.68208 6.11575 7.33534C6.1277 6.9886 6.24129 6.69567 6.45651 6.45654C6.69564 6.21741 6.98259 6.09784 7.31738 6.09784C7.65216 6.09784 7.95107 6.21741 8.21412 6.45654L10.2228 8.5011C10.438 8.74023 10.5456 9.02719 10.5456 9.36197C10.5456 9.69676 10.438 9.97176 10.2228 10.187C10.0076 10.4261 9.72662 10.5516 9.37988 10.5636C9.03314 10.5756 8.7402 10.462 8.50107 10.2228ZM26.2206 27.9783L24.2119 25.9337C23.9967 25.6946 23.8891 25.4076 23.8891 25.0728C23.8891 24.7381 23.9967 24.4511 24.2119 24.212C24.4511 23.9728 24.738 23.8533 25.0728 23.8533C25.4076 23.8533 25.6946 23.9728 25.9337 24.212L27.9782 26.2207C28.2174 26.4598 28.331 26.7527 28.319 27.0995C28.3071 27.4462 28.1935 27.7391 27.9782 27.9783C27.7391 28.2174 27.4522 28.337 27.1174 28.337C26.7826 28.337 26.4837 28.2174 26.2206 27.9783ZM24.2119 10.2228C23.9728 9.98371 23.8532 9.69676 23.8532 9.36197C23.8532 9.02719 23.9728 8.74023 24.2119 8.5011L26.2206 6.45654C26.4598 6.21741 26.7527 6.10382 27.0994 6.11578C27.4462 6.12773 27.7391 6.24132 27.9782 6.45654C28.2174 6.69567 28.3369 6.98263 28.3369 7.31741C28.3369 7.65219 28.2174 7.9511 27.9782 8.21415L25.9337 10.2228C25.7185 10.4381 25.4435 10.5457 25.1087 10.5457C24.7739 10.5457 24.475 10.4381 24.2119 10.2228ZM6.45651 27.9783C6.21738 27.7391 6.09781 27.4522 6.09781 27.1174C6.09781 26.7826 6.21738 26.4837 6.45651 26.2207L8.50107 24.212C8.7402 23.9728 9.02118 23.8533 9.34401 23.8533C9.66683 23.8533 9.94781 23.9728 10.1869 24.212C10.45 24.4511 10.5815 24.7381 10.5815 25.0728C10.5815 25.4076 10.4619 25.6946 10.2228 25.9337L8.21412 27.9783C7.97499 28.2174 7.68205 28.331 7.33531 28.319C6.98857 28.3071 6.69564 28.1935 6.45651 27.9783Z" fill="white"/>
</g>
<defs>
<clipPath id="clip0_151_8">
<rect width="33" height="33" fill="white"/>
</clipPath>
</defs>
</svg>
